<svg height="853" viewBox="0 0 1012 853" width="1012" xmlns="http://www.w3.org/2000/svg"><g fill="none" fill-rule="evenodd"><path d="m260.875969 837.931858c-21.424-4.339-278.8270004-43.42-259.88000043-331.658 18.94700003-288.239 42.73100003-374.922 142.80600043-406.635 100.074-31.713 343.338-181.778 534.228-39.091 190.89 142.688 396.873001 270.664 315.133 498.495-81.74 227.83-95.125 303.827-308.394 292.201-213.269-11.628-322.023 7.316-423.893-13.312" fill="#f9f9f9"/><path d="m174.189969 772.265858c-9.209-2.42-12.629-5.267-8.282-8.612 30.226-23.26 167.727-22.433 234.421-22.349 83.888.106 171.164-.433 246.798 5.302 31.651 2.4 103.319 4.644 115.714 12.533 32.508 20.726-195.981 26.222-232.971 26.472-61.665.417-303.084.48-355.68-13.346" fill="#e5e5e5"/><path d="m691.796969 464.116858h-227.555c-4.827 0-9.411-2.115-12.543-5.787l-62.23-72.966c-3.132-3.673-7.716-5.788-12.543-5.788h-181.006c-9.104 0-16.484 7.38-16.484 16.484v353.447c0 9.104 7.38 16.485 16.484 16.485h501.689c9.104 0 16.484-7.381 16.484-16.485v-263.093c0-12.314-9.982-22.297-22.296-22.297" fill="#d1d1d1"/><path d="m703.593969 487.350858c0-7.654-6.206-13.859-13.86-13.859h-231.085c-4.732 0-9.226-2.05-12.296-5.608l-61.009-70.701c-3.07-3.558-7.564-5.608-12.296-5.608h-177.451c-8.926 0-16.161 7.152-16.161 15.973v342.471c0 8.821 7.235 15.973 16.161 15.973h491.836c8.925 0 16.161-7.152 16.161-15.973z" fill="#e5e5e5"/><path d="m692.366969 463.166858c-23.271 0-46.543 0-69.814 0-39.431 0-78.862 0-118.293 0-11.509 0-23.018 0-34.527 0-4.485 0-8.587-.022-12.577-2.777-3.64-2.512-6.488-6.75-9.321-10.073-12.334-14.462-24.669-28.924-37.003-43.386-5.057-5.929-10.114-11.858-15.171-17.788-4.077-4.781-7.831-9.38-14.595-10.321-8.135-1.132-16.927-.196-25.101-.196-18.178 0-36.357 0-54.535 0-33.318 0-66.637 0-99.955 0-12.646 0-24.379 5.229-24.454 19.715-.088 17.213 0 34.428 0 51.64v50.227 112.738 108.668c0 8.852-.034 17.704 0 26.556.042 10.855 7.104 18.644 18.218 18.772 15.706.181 31.424 0 47.13 0h98.306 122.489 118.492 86.377 22.839c7.623 0 15.312-.415 21.002-6.45 5.969-6.329 4.634-15.666 4.634-23.669 0-13.697 0-27.393 0-41.09 0-39.73 0-79.46 0-119.19 0-28.527 0-57.055 0-85.582 0-1.623.042-3.252-.02-4.874-.506-13.162-11.314-22.55-24.121-22.92-.996-.029-5.463 1.834-3.151 1.901 12.751.368 22.188 10.628 22.462 23.178.045 2.049 0 4.103 0 6.152v34.246 114.295 95.624c0 9.958 1.605 25.293-12.495 26.478-3.166.266-6.469 0-9.642 0-22.108 0-44.216 0-66.324 0-35.725 0-71.45 0-107.175 0-40.596 0-81.192 0-121.788 0-36.72 0-73.441 0-110.161 0-24.099 0-48.198 0-72.297 0-4.577 0-9.173.12-13.749 0-8.417-.221-15.399-6.27-16.142-14.829-.153-1.764-.054-3.576-.054-5.344 0-26.338 0-52.677 0-79.016 0-39.791 0-79.582 0-119.374 0-26.339 0-52.677 0-79.016 0-23.355-.133-46.713 0-70.067.047-8.294 3.844-16.062 13.143-16.869 3.26-.283 6.673 0 9.943 0h46.212 109.569c9.415 0 19.81-1.726 26.787 6.016 9.578 10.628 18.604 21.813 27.887 32.698 10.714 12.563 21.429 25.126 32.143 37.689 4.071 4.772 8.666 7.919 15.225 8.139 2.138.072 4.292 0 6.432 0h94.278 107.359 18.387c.99 0 5.446-1.901 3.151-1.901" fill="#6a79a8"/><path d="m910.404969 395.466858-139.637 278.934c-3.399 6.791-11.676 9.531-18.488 6.121l-251.317-125.812c-6.812-3.409-9.578-11.678-6.179-18.468l21.763-43.473 12.201-23.856 132.606-264.889c3.399-6.79 11.677-9.53 18.488-6.12l197.763 99.001 32.828 98.503z" fill="#e5e5e5"/><path d="m516.243969 493.374858 11.896-23.272 129.343-258.372c3.316-6.623 11.25-9.366 17.721-6.127l187.884 94.056 1.318 4.138-24.513 48.967c-3.58 7.151-.685 15.85 6.466 19.43l39.205 19.626c5.431 2.719 7.63 9.326 4.911 14.757l-130.963 261.608c-3.315 6.624-11.249 9.366-17.72 6.127l-241.061-120.677c-6.471-3.24-9.03-11.235-5.714-17.858z" fill="#fff"/><path d="m908.403969 395.114858c-17.075 34.107-34.149 68.214-51.223 102.321-25.511 50.96-51.022 101.921-76.533 152.881-3.177 6.345-6.353 12.69-9.529 19.035-3.267 6.525-6.991 13.671-16.288 9.517-12.278-5.486-24.17-12.099-36.192-18.118-52.975-26.519-105.95-53.039-158.925-79.559-17.242-8.631-34.484-17.262-51.725-25.894-1.342-.671-2.714-1.303-4.032-2.018-6.498-3.526-9.554-10.588-6.673-17.612 4.413-10.754 10.515-21.074 15.716-31.463 14.607-29.178 29.421-58.253 44.028-87.432 26.831-53.596 53.661-107.192 80.492-160.788 8.214-16.41 16.429-32.819 24.644-49.228 3.256-6.506 7.318-12.65 16.217-8.571 5.093 2.334 10.05 5.031 15.059 7.538 50.458 25.26 100.917 50.52 151.376 75.78 8.256 4.134 16.513 8.267 24.77 12.4 3.463 1.734 5.7 2.02 6.733 5.12 8.313 24.943 16.626 49.886 24.939 74.829 1.711 5.134 3.422 10.268 5.133 15.401.324.975 2.22 5.423 2.013 5.861-.378.797 4.169.44 4.769-.828.54-1.143-1.51-5.01-1.872-6.084-1.827-5.482-3.654-10.964-5.481-16.446-4.961-14.885-9.921-29.769-14.882-44.653-2.106-6.321-4.212-12.641-6.319-18.962-1.235-3.706-2.104-7.974-3.828-11.487-1.333-2.715-5-3.588-7.71-4.944-49.687-24.874-99.374-49.748-149.062-74.622-10.105-5.058-20.21-10.117-30.315-15.176-4.09-2.047-8.156-4.475-12.422-6.148-9.329-3.658-18.766 1.587-22.956 9.957-2.755 5.503-5.509 11.006-8.264 16.509-25.689 51.315-51.378 102.63-77.067 153.946-17.341 34.64-34.485 69.386-52.126 103.876-4.532 8.862-9.017 17.744-13.473 26.645-3.536 7.063-7.072 14.127-10.608 21.19-1.998 3.992-4.972 8.431-5.408 12.958-.854 8.865 5.654 12.912 12.325 16.251 6.904 3.456 13.807 6.912 20.711 10.368 53.252 26.659 106.505 53.317 159.758 79.976 19.53 9.777 39.06 19.554 58.591 29.331 3.74 1.873 7.868 4.55 12.049 5.243 9.122 1.511 16.226-3.806 20.063-11.471 21.335-42.619 42.67-85.237 64.005-127.855 23.395-46.734 46.791-93.467 70.186-140.201 1.369-2.734 2.735-5.467 4.105-8.201.38-.763-4.137-.435-4.769.828" fill="#6a79a8"/><path d="m877.852969 296.070858-26.467 52.869c-3.579 7.151-.684 15.85 6.466 19.429l52.869 26.467z" fill="#fff"/><path d="m875.471969 296.500858c-8.384 16.748-16.768 33.496-25.152 50.245-4.397 8.783-3.252 18.036 6.186 22.907 8.741 4.511 17.599 8.81 26.395 13.213 8.514 4.263 17.029 8.525 25.543 12.788.685.342 5.089-.28 4.689-1.465-9.562-28.743-19.128-57.485-28.693-86.228-1.391-4.179-2.782-8.358-4.172-12.537-.364-1.093-5.156.316-4.83 1.294 9.565 28.743 19.131 57.486 28.696 86.228 1.391 4.179 2.781 8.358 4.172 12.537 1.564-.489 3.128-.977 4.687-1.465-16.447-8.236-32.899-16.472-49.351-24.708-3.568-1.786-7.059-3.4-9.258-6.998-3.038-4.969-2.3-10.346.14-15.314 4.388-8.934 8.912-17.803 13.368-26.703 4.114-8.218 8.228-16.436 12.341-24.653.331-.66-4.146-.369-4.761.859" fill="#6a79a8"/><path d="m577.370969 474.971858c17.894-14.716 36.622-28.154 55.783-41.156 8.44-5.726 17.002-11.703 26.61-15.321 7.324-2.759 15.614-4.438 21.698 1.537 5.175 5.082 8.029 12.33 11.292 18.663 1.771 3.436 3.474 6.809 6.97 8.79 3.902 2.211 8.635 2.242 12.932 1.51 10.545-1.796 21.004-6.641 31.09-10.127 10.994-3.8 21.965-7.686 32.796-11.933 24.955-9.785 48.985-21.904 72.109-35.433 2.42-1.416 5.644-4.108 3.505-7.157-1.904-2.714-7.3-2.365-9.794-.906-20.601 12.054-41.927 23.02-63.987 32.161-11.025 4.568-22.237 8.648-33.505 12.57-5.477 1.907-10.966 3.781-16.451 5.665-4.999 1.717-10.191 4.215-15.403 5.149-3.577.641-4.552-1.989-6.106-4.901-1.857-3.479-3.511-7.063-5.394-10.528-3.636-6.693-8.324-12.921-15.58-15.901-18.372-7.547-40.402 5.539-55.265 15.273-21.702 14.214-42.755 29.379-62.795 45.86-7.582 6.236 4.114 10.611 9.495 6.185" fill="#bbf9bc"/><path d="m822.523969 395.002858c3.824-.235 7.648-.491 11.447-1 1.933-.259 3.869-.563 5.783-.93.634-.127 1.268-.254 1.902-.38 2.502-.432 2.535-.576.099-.433-1.043-1.061-2.085-2.122-3.127-3.184.052.239.104.477.157.716.786-1.848 1.573-3.696 2.36-5.544-4.132 3.827-8.209 7.3-11.41 12.045-3.614 5.355-5.957 11.029-7.607 17.247-.965 3.637 4.192 5.301 6.809 5.173 3.793-.186 6.955-2.466 7.918-6.094 1.537-5.789 4.441-11.25 8.327-15.795 2.669-3.121 8.896-6.197 8.092-10.914-.793-4.648-6.724-5.292-10.465-4.689-6.446 1.038-12.626 2.112-19.176 2.514-3.293.203-7.592 2.412-7.918 6.095-.327 3.709 3.738 5.361 6.809 5.173" fill="#bbf9bc"/><path d="m827.669969 468.008858c-23.305-11.666-46.609-23.331-69.913-34.997-37.105-18.573-74.21-37.147-111.315-55.721-8.465-4.237-16.929-8.474-25.393-12.711-2.116-1.059-5.524 2.019-2.747 3.409 23.304 11.666 46.608 23.331 69.913 34.996 37.105 18.574 74.21 37.148 111.315 55.721 8.464 4.238 16.928 8.475 25.393 12.712 2.116 1.059 5.523-2.019 2.747-3.409" fill="#6a79a6"/><path d="m841.709969 442.657858c-23.305-11.665-46.609-23.33-69.913-34.996-37.105-18.574-74.21-37.147-111.315-55.721-8.465-4.237-16.929-8.474-25.393-12.711-1.238-.62-5.06 1.375-4.556 1.627 23.304 11.665 46.609 23.331 69.913 34.996 37.105 18.574 74.21 37.147 111.315 55.721 8.464 4.237 16.929 8.474 25.393 12.711 1.238.62 5.059-1.375 4.556-1.627" fill="#6a79a6"/><path d="m753.210969 532.087858c19.161-38.278 38.322-76.556 57.482-114.833 2.722-5.437 5.444-10.875 8.166-16.312.99-1.979-3.608-3.931-4.629-1.89-19.161 38.277-38.322 76.555-57.482 114.833-2.722 5.437-5.444 10.874-8.166 16.311-.99 1.98 3.608 3.932 4.629 1.891" fill="#6a79a6"/><path d="m801.077969 522.654858c-23.304-11.665-46.609-23.331-69.913-34.996-37.105-18.574-74.21-37.147-111.315-55.721-8.464-4.237-16.929-8.474-25.393-12.711-1.544-.773-5.93 1.413-3.806 2.477 23.304 11.665 46.609 23.331 69.913 34.996 37.105 18.574 74.21 37.147 111.315 55.721 8.464 4.237 16.929 8.474 25.393 12.711 1.544.773 5.93-1.413 3.806-2.477" fill="#6a79a6"/><path d="m813.693969 495.985858c-23.304-11.666-46.608-23.331-69.913-34.996-37.105-18.574-74.21-37.148-111.315-55.721-8.464-4.237-16.928-8.474-25.393-12.712-2.052-1.027-5.527 1.952-2.767 3.333 23.304 11.666 46.609 23.331 69.913 34.997 37.105 18.573 74.21 37.147 111.315 55.721 8.464 4.237 16.929 8.474 25.393 12.711 2.052 1.027 5.528-1.951 2.767-3.333" fill="#6a79a6"/><path d="m577.185969 447.965858c23.321 11.674 46.642 23.348 69.963 35.021 37.224 18.633 74.447 37.266 111.67 55.899l25.842 12.936c1.241.621 3.114-.2 3.699-1.368 19.434-38.825 38.869-77.649 58.303-116.474 2.742-5.477 5.483-10.954 8.225-16.431.449-.898-.191-1.629-.942-2.005-23.321-11.674-46.643-23.348-69.964-35.022-37.223-18.633-74.446-37.266-111.67-55.899-8.614-4.312-17.228-8.624-25.842-12.935-1.241-.622-3.113.2-3.698 1.368-19.435 38.824-38.869 77.649-58.303 116.474-2.742 5.476-5.484 10.953-8.225 16.43-1.251 2.5 3.634 2.649 4.64.638 19.435-38.825 38.869-77.649 58.304-116.474 2.741-5.477 5.483-10.954 8.224-16.431-1.232.456-2.465.912-3.698 1.368l69.963 35.022c37.224 18.633 74.447 37.266 111.671 55.899 8.613 4.312 17.227 8.624 25.841 12.935-.314-.668-.628-1.337-.942-2.005-19.434 38.824-38.869 77.649-58.303 116.474-2.742 5.476-5.483 10.953-8.225 16.43 1.233-.456 2.466-.912 3.698-1.368-23.321-11.674-46.642-23.348-69.963-35.021-37.223-18.633-74.447-37.266-111.67-55.899-8.614-4.312-17.228-8.624-25.842-12.936-2.086-1.044-5.525 1.988-2.756 3.374" fill="#6a79a6"/><path d="m772.017969 577.986858-53.627-26.844 26.844-53.626 53.627 26.843z" fill="#fff"/><path d="m771.709969 577.061858-43.629-21.84 21.839-43.629 43.63 21.839z" fill="#bbf9bc"/><path d="m773.922969 576.756858c-17.875-8.948-35.751-17.896-53.626-26.844.12.448.24.895.36 1.343 8.947-17.876 17.895-35.751 26.843-53.627-1.39.373-2.78.745-4.17 1.118 17.876 8.948 35.751 17.896 53.627 26.844-.12-.448-.24-.896-.36-1.343-8.948 17.875-17.896 35.751-26.844 53.626-1.088 2.174 3.753 1.778 4.53.226 8.948-17.876 17.896-35.751 26.844-53.627.26-.518.213-1.056-.36-1.343-17.875-8.948-35.751-17.896-53.626-26.844-1.174-.587-3.535-.152-4.171 1.118-8.948 17.875-17.896 35.751-26.844 53.626-.259.519-.212 1.057.36 1.343 17.876 8.948 35.751 17.896 53.627 26.844 1.527.765 5.919-1.404 3.81-2.46" fill="#6a79a6"/><path d="m762.982969 263.325858-60.976 305.917c-1.484 7.447-8.743 12.276-16.214 10.787l-275.628-54.938c-7.47-1.489-12.323-8.733-10.838-16.18l9.503-47.678 5.465-26.232 57.905-290.512c1.484-7.447 8.744-12.277 16.214-10.788l216.893 43.231 57.687 86.329z" fill="#e5e5e5"/><path d="m408.697969 461.897858 5.324-25.587 56.481-283.366c1.448-7.264 8.375-12.005 15.472-10.591l206.058 41.072 2.366 3.643-10.705 53.703c-1.563 7.843 3.527 15.468 11.37 17.031l42.997 8.57c5.957 1.187 9.823 6.979 8.636 12.935l-57.188 286.915c-1.448 7.263-8.375 12.005-15.472 10.59l-264.379-52.696c-7.098-1.415-11.677-8.45-10.23-15.714z" fill="#fff"/><path d="m760.727969 262.759858c-7.456 37.407-14.912 74.813-22.368 112.22-11.14 55.889-22.28 111.779-33.42 167.669-1.387 6.958-2.774 13.917-4.161 20.876-1.442 7.232-3.545 15.605-13.434 14.263-13.06-1.774-26.106-5.204-39.023-7.779-57.78-11.516-115.56-23.033-173.339-34.55-19.273-3.841-38.546-7.683-57.819-11.524-1.602-.32-3.232-.579-4.821-.961-7.202-1.734-11.527-7.724-10.421-15.203 1.761-11.915 4.737-23.768 7.091-35.579 6.367-31.943 12.961-63.84 19.328-95.784 11.664-58.517 23.328-117.035 34.992-175.552 3.551-17.816 7.102-35.632 10.653-53.447 1.425-7.15 4.313-14.469 13.607-13.066 5.53.836 11.031 2.199 16.514 3.292 55.34 11.031 110.68 22.061 166.02 33.091 9.055 1.805 18.11 3.61 27.166 5.415 2.005.4 4.032.741 6.025 1.201.906.209.537.347-.072-.264.519.521.898 1.343 1.304 1.95 14.685 21.976 29.37 43.952 44.055 65.928 2.929 4.384 5.859 8.767 8.788 13.151.851 1.274 1.656 2.599 2.562 3.835.694.946.613 1.724.773.818-.353 1.995 4.531 1.224 4.845-.548.254-1.437-2.595-4.383-3.295-5.43-3.145-4.707-6.29-9.414-9.435-14.121-8.699-13.018-17.398-26.036-26.097-39.053-5.989-8.963-11.449-18.863-18.217-27.261-2.053-2.548-5.507-2.421-8.694-3.056-54.206-10.805-108.411-21.609-162.617-32.414-15.682-3.125-31.367-6.844-47.155-9.399-10.5-1.698-18.578 4.72-20.566 14.694-1.203 6.035-2.406 12.071-3.609 18.106-11.218 56.279-22.435 112.558-33.653 168.837-7.509 37.671-14.794 75.395-22.628 113-2.065 9.911-4.083 19.827-6.062 29.755-1.522 7.637-3.044 15.273-4.566 22.909-.875 4.386-2.616 9.543-2.091 14.071 1.083 9.342 8.985 12.192 16.779 13.745 7.462 1.487 14.923 2.975 22.384 4.462 58.024 11.565 116.048 23.131 174.072 34.696 21.756 4.337 43.512 8.673 65.268 13.009 3.987.795 8.333 2.137 12.436 2.161 9.958.058 15.635-7.104 17.398-15.949 9.302-46.668 18.604-93.336 27.906-140.005 10.217-51.254 20.433-102.509 30.649-153.763.597-2.998 1.195-5.996 1.793-8.994.392-1.969-4.492-1.223-4.845.548" fill="#6a79a8"/><path d="m705.325969 176.063858-11.558 57.982c-1.563 7.843 3.528 15.468 11.37 17.031l57.983 11.557z" fill="#fff"/><path d="m702.899969 176.323858c-3.691 18.515-7.381 37.029-11.072 55.544-1.979 9.932 2.316 18.588 12.749 20.811 9.502 2.024 19.065 3.8 28.593 5.699 9.501 1.894 19.002 3.787 28.502 5.681 1.098.219 4.897-.59 3.68-2.413-16.82-25.194-33.639-50.387-50.459-75.581-2.445-3.663-4.891-7.326-7.336-10.989-1.005-1.505-5.674.161-4.463 1.975 16.82 25.194 33.64 50.388 50.459 75.582 2.446 3.663 4.891 7.326 7.337 10.989 1.226-.805 2.453-1.609 3.679-2.413-17.954-3.579-35.909-7.157-53.863-10.736-3.767-.751-7.463-1.275-10.441-4.047-4.268-3.973-4.732-9.32-3.666-14.671 1.954-9.8 3.907-19.601 5.86-29.401 1.765-8.85 3.529-17.7 5.293-26.551.406-2.037-4.488-1.308-4.852.521" fill="#6a79a8"/><path d="m589.615969 355.704858c-7.835 26.702-34.916 43.463-62.728 37.921-29.4-5.859-48.518-34.494-42.659-63.894 5.551-27.852 31.48-46.452 59.19-43.385 2.555.283 4.307 2.715 3.804 5.236l-6.877 34.511c-1.569 7.873 3.541 15.528 11.415 17.097l34.455 6.867c2.575.513 4.139 3.128 3.4 5.647" fill="#f9ab98"/><path d="m587.303969 355.418858c-8.673 28.183-38.955 44.638-67.133 34.291-26.45-9.713-40.821-39.882-31.791-66.566 4.407-13.024 13.87-24.008 26.222-30.095 6.102-3.007 12.748-4.762 19.54-5.152 3.488-.201 10.708-1.058 10.63 3.883-.011.671-.289 1.449-.419 2.103-1.623 8.145-3.247 16.29-4.87 24.434-1.473 7.391-3.593 14.915 2.021 21.319 5.198 5.929 14.578 6.355 21.837 7.801 4.974.992 9.948 1.983 14.923 2.974 3.324.663 9.621.566 8.904 5.473-.359 2.46 4.574 1.844 4.896-.357 1.258-8.611-12.229-8.679-17.898-9.809-5.081-1.012-10.163-2.025-15.244-3.037-3.393-.677-7.389-1.008-10.35-2.935-9.612-6.255-4.808-18.699-3.017-27.688 1.001-5.024 2.003-10.048 3.004-15.073.492-2.467 1.792-5.952.884-8.464-2.088-5.78-11.534-4.494-16.257-4.101-6.967.579-13.821 2.441-20.132 5.448-12.757 6.077-23.093 16.933-28.331 30.076-10.947 27.466 2.033 59.235 28.847 71.482 31.002 14.16 68.403-3.09 78.357-35.434.824-2.677-3.983-2.651-4.623-.573" fill="#6a79a8"/><path d="m591.357969 341.452858 6.922 1.38c3.464.69 6.744-1.81 7.013-5.332 1.895-24.825-13.488-47.876-37.136-55.655-3.371-1.108-6.953.973-7.647 4.453l-6.551 32.873c-1.57 7.877 3.543 15.534 11.419 17.104l4.919.98z" fill="#f4cac1"/><path d="m589.885969 342.789858c4.954.987 10.635 2.996 15.042-.622 5.986-4.913 2.581-18.469.729-24.716-4.788-16.154-18.876-33.106-36.028-36.943-13.547-3.03-13.477 15.823-15.208 24.508-1.966 9.867-6.765 22.27 2.907 29.629 4.305 3.276 10.167 3.682 15.343 4.713 5.738 1.144 11.477 2.287 17.215 3.431 1.583.316 5.687-2.127 2.944-2.674-7.011-1.397-14.022-2.794-21.032-4.191-6.287-1.253-12.134-2.751-14.761-9.4-1.931-4.884-.135-10.283.843-15.194 1.431-7.178 2.862-14.357 4.292-21.535.223-1.117.253-2.72.749-3.759 2.613-5.476 10.515-.178 13.614 1.621 6.618 3.842 12.361 9.194 16.757 15.452 4.938 7.029 8.127 15.243 9.267 23.755.483 3.607 2.433 14.044-3.189 14.554-1.958.178-4.602-.917-6.54-1.303-1.583-.315-5.687 2.127-2.944 2.674" fill="#6a79a8"/><path d="m668.024969 249.179858-129.091-25.726c-3.385-.675-5.583-3.966-4.908-7.351l.857-4.302c.675-3.385 3.966-5.582 7.351-4.907l129.091 25.726c3.386.675 5.583 3.966 4.908 7.351l-.857 4.301c-.675 3.386-3.966 5.583-7.351 4.908" fill="#f4cac1"/><path d="m663.758969 494.309858-214.857-42.819c-3.385-.675-5.583-3.966-4.908-7.351l.857-4.301c.675-3.386 3.966-5.583 7.351-4.908l214.858 42.819c3.385.675 5.582 3.966 4.907 7.351l-.857 4.301c-.674 3.385-3.966 5.583-7.351 4.908" fill="#f4cac1"/><path d="m678.831969 335.120858-35.54-7.083c-3.385-.675-5.582-3.966-4.908-7.351l.858-4.301c.674-3.386 3.965-5.583 7.351-4.908l35.539 7.083c3.386.674 5.583 3.965 4.908 7.351l-.857 4.301c-.675 3.385-3.966 5.582-7.351 4.908" fill="#f4cac1"/><path d="m680.300969 333.774858c-5.6-1.117-11.2-2.233-16.801-3.349-6.008-1.197-12.7-1.744-18.517-3.69-5.009-1.675-4.558-6.408-3.347-10.521 1.327-4.505 4.585-3.172 7.824-2.527 7.705 1.536 15.411 3.071 23.116 4.607 2.57.512 5.457.746 7.949 1.584 3.144 1.057 4.388 3.414 4.05 6.561-.293 2.718-1.015 7.636-4.815 7.269-1.915-.185-5.104 2.51-1.856 2.823 5.581.539 9.752-2.484 10.951-7.882 1.144-5.152.487-9.845-5.288-11.443-8.349-2.309-17.218-3.431-25.712-5.124-7.099-1.415-18.121-5.164-21.032 4.593-1.335 4.477-1.674 9.933 3.344 12.184 2.562 1.15 5.826 1.355 8.537 1.895l28.659 5.712c1.598.318 5.689-2.144 2.938-2.692" fill="#6a79a8"/><path d="m668.105969 388.940858-35.54-7.082c-3.385-.675-5.582-3.966-4.908-7.351l.858-4.302c.674-3.385 3.965-5.582 7.351-4.908l35.539 7.083c3.386.675 5.583 3.966 4.908 7.351l-.857 4.301c-.675 3.386-3.966 5.583-7.351 4.908" fill="#f9ab98"/><g fill="#6a79a8"><path d="m669.575969 387.594858c-5.601-1.116-11.201-2.232-16.802-3.348-6.008-1.198-12.7-1.745-18.517-3.69-5.009-1.676-4.558-6.409-3.347-10.521 1.327-4.505 4.585-3.173 7.824-2.527 7.705 1.536 15.411 3.071 23.116 4.607 2.57.512 5.457.746 7.949 1.584 3.144 1.057 4.388 3.414 4.05 6.56-.293 2.719-1.015 7.636-4.815 7.27-1.915-.185-5.104 2.51-1.856 2.823 5.581.539 9.752-2.484 10.951-7.882 1.144-5.152.487-9.845-5.288-11.443-8.349-2.31-17.218-3.431-25.712-5.124-7.099-1.415-18.121-5.164-21.032 4.592-1.335 4.478-1.674 9.933 3.344 12.185 2.562 1.15 5.826 1.355 8.537 1.895l28.659 5.712c1.598.318 5.689-2.145 2.939-2.693"/><path d="m621.790969 404.847858c15.012 2.992 30.025 5.984 45.038 8.976 1.409.281 5.653-1.929 3.002-2.457-15.013-2.992-30.026-5.984-45.039-8.976-1.409-.281-5.652 1.929-3.001 2.457"/><path d="m623.319969 397.431858 45.039 8.976c1.588.316 5.688-2.133 2.942-2.68-15.013-2.992-30.025-5.984-45.038-8.975-1.588-.317-5.688 2.132-2.943 2.679"/><path d="m632.597969 350.676858 45.039 8.976c1.449.288 5.662-1.976 2.988-2.509-15.013-2.992-30.026-5.984-45.039-8.976-1.449-.288-5.662 1.976-2.988 2.509"/><path d="m633.608969 342.830858c15.012 2.992 30.025 5.984 45.038 8.976 1.133.226 5.296-1.608 3.968-1.872-15.013-2.992-30.026-5.984-45.039-8.976-1.132-.226-5.295 1.608-3.967 1.872"/><path d="m690.366969 273.012858c-20.224-4.03-40.448-8.061-60.671-12.091-32.298-6.437-64.597-12.874-96.895-19.31-7.499-1.495-14.999-2.99-22.499-4.484-2.631-.525-4.638 3.31-1.441 3.948 20.224 4.03 40.448 8.06 60.671 12.091 32.299 6.436 64.597 12.873 96.895 19.31 7.5 1.495 14.999 2.989 22.499 4.484 2.632.524 4.638-3.311 1.441-3.948"/><path d="m679.535969 457.201858c-25.558-5.094-51.117-10.187-76.675-15.281-40.694-8.11-81.388-16.22-122.082-24.33-9.283-1.85-18.566-3.7-27.849-5.55-.995-.198-4.916.87-4.218 1.01 25.558 5.093 51.117 10.187 76.675 15.28 40.694 8.11 81.388 16.22 122.082 24.33l27.849 5.55c.995.198 4.916-.87 4.218-1.009"/></g><path d="m535.372969 290.441858 60.001 306.109c1.461 7.452-3.415 14.681-10.89 16.146l-275.802 54.061c-7.475 1.465-14.718-3.388-16.179-10.84l-9.351-47.708-4.927-26.338-56.98-290.695c-1.461-7.452 3.415-14.68 10.89-16.146l217.029-42.54 86.195 57.888z" fill="#e5e5e5"/><path d="m283.281969 608.874858-4.811-25.689-55.579-283.544c-1.424-7.268 3.178-14.289 10.28-15.681l206.188-40.415 3.573 2.468 10.533 53.738c1.538 7.847 9.147 12.962 16.994 11.423l43.024-8.433c5.961-1.168 11.74 2.717 12.908 8.677l56.275 287.095c1.424 7.268-3.178 14.289-10.28 15.681l-264.545 51.854c-7.102 1.392-14.014-3.372-15.438-10.64z" fill="#fff"/><path d="m532.792969 290.248858c6.418 32.745 12.837 65.491 19.256 98.237 10.6 54.077 21.199 108.154 31.799 162.231 2.804 14.304 5.608 28.608 8.411 42.912 1.363 6.949.187 14.994-7.933 17.141-3.779.999-7.755 1.52-11.588 2.272-48.172 9.442-96.345 18.885-144.518 28.327-25.776 5.053-51.552 10.105-77.328 15.158-13.637 2.673-27.265 5.762-40.976 8.031-4.747.786-9.234-.381-12.428-4.265-2.934-3.568-3.301-8.752-4.16-13.134-2.451-12.504-4.902-25.008-7.353-37.513-2.262-11.539-4.297-23.122-6.558-34.661-8.536-43.548-17.073-87.097-25.609-130.645-9.305-47.476-18.611-94.951-27.917-142.427-.762-3.888-1.686-7.783-2.293-11.7-1.321-8.51 3.555-13.993 11.233-15.498 18.065-3.541 36.129-7.082 54.194-10.623 49.873-9.776 99.745-19.551 149.618-29.327 3.326-.652 6.653-1.304 9.979-1.956-.626-.088-1.252-.175-1.878-.263 25.137 16.882 50.274 33.764 75.41 50.646 1.718 1.153 10.353 5.748 10.639 7.057.309 1.412 5.159.215 4.83-1.294-.279-1.277-4.28-3.071-5.242-3.717-4.797-3.222-9.594-6.443-14.391-9.665-13.024-8.747-26.049-17.494-39.073-26.241-8.847-5.942-17.525-12.376-26.645-17.895-2.909-1.76-6.418-.255-9.622.373-54.089 10.602-108.177 21.204-162.266 31.806-15.985 3.134-32.057 5.984-47.983 9.406-10.204 2.192-15.233 10.325-13.295 20.211 1.184 6.039 2.368 12.078 3.551 18.118 11.039 56.314 22.077 112.628 33.116 168.943 7.388 37.695 15.003 75.353 22.066 113.111 1.861 9.951 3.767 19.889 5.715 29.824 1.497 7.641 2.995 15.282 4.493 22.923.916 4.673 1.285 10.549 3.969 14.616 4.946 7.492 13.08 6.904 20.641 5.422 7.355-1.441 14.711-2.883 22.066-4.325l173.91-34.089c21.936-4.299 43.871-8.599 65.807-12.899 3.805-.745 7.791-1.249 11.523-2.338 7.858-2.294 12.891-9.331 11.651-17.527-.157-1.039-.407-2.073-.609-3.104-9.153-46.698-18.306-93.396-27.46-140.093-10.053-51.287-20.105-102.574-30.158-153.861-.588-2.999-1.176-5.999-1.764-8.999-.274-1.398-5.131-.239-4.83 1.294" fill="#6a79a8"/><path d="m448.850969 231.678858 11.372 58.02c1.539 7.847 9.147 12.962 16.995 11.423l58.019-11.372z" fill="#fff"/><path d="m446.435969 232.325858c3.632 18.527 7.263 37.053 10.894 55.58 2.01 10.253 9.675 16.01 20.233 14.108 9.605-1.731 19.166-3.757 28.744-5.634 9.506-1.864 19.013-3.727 28.52-5.591.281-.055 3.792-1.151 2.674-1.902-25.14-16.9-50.28-33.8-75.42-50.7-3.655-2.457-7.31-4.914-10.966-7.371-1.209-.813-5.43 1.12-4.529 1.726 25.141 16.9 50.281 33.8 75.421 50.7 3.655 2.457 7.31 4.914 10.965 7.371.892-.634 1.783-1.268 2.674-1.903-17.877 3.505-35.753 7.009-53.63 10.513-4.456.873-8.566 1.766-12.846-.803-4.258-2.557-6.026-6.787-6.93-11.401-1.922-9.807-3.845-19.613-5.767-29.419-1.736-8.856-3.471-17.712-5.207-26.568-.24-1.225-5.1-.083-4.83 1.294" fill="#6a79a8"/><path d="m304.308969 357.933858-4.811-9.258c-1.364-2.586-2.861-5.86-4.087-8.473l-.137.026c-.148 2.883-.148 6.522-.379 9.349l-.822 10.363zm-10.212 10.135-.968 12.531-10.855 2.128 5.076-49.077 13.739-2.694 23.436 43.488-11.267 2.209-5.902-11.184z" fill="#e5e5e5"/><path d="m300.416969 358.697858-4.812-9.258c-1.363-2.587-2.861-5.86-4.087-8.473l-.138.026c-.147 2.883-.148 6.521-.379 9.349l-.821 10.362zm-10.212 10.135-.968 12.531-10.856 2.128 5.076-49.078 13.74-2.694 23.434 43.489-11.265 2.209-5.903-11.185z" fill="#9fcded"/><g fill="#6a79a8"><path d="m502.049969 323.240858c-18.937 3.712-37.875 7.425-56.812 11.137-30.241 5.929-60.481 11.857-90.721 17.786-7.017 1.375-14.033 2.751-21.05 4.126-2.991.587-2.22 3.277.724 2.7 18.937-3.712 37.875-7.425 56.812-11.137 30.24-5.929 60.481-11.857 90.721-17.786 7.016-1.375 14.033-2.751 21.05-4.126 2.991-.587 2.219-3.277-.724-2.7"/><path d="m513.364969 380.922858c-25.574 5.013-51.148 10.027-76.723 15.041-40.719 7.982-81.438 15.965-122.157 23.948-9.289 1.821-18.577 3.642-27.866 5.463-2.974.583-2.251 3.099.676 2.525 25.575-5.014 51.149-10.027 76.723-15.041 40.719-7.983 81.438-15.966 122.157-23.948 9.289-1.821 18.578-3.642 27.866-5.463 2.975-.583 2.252-3.099-.676-2.525"/><path d="m508.530969 352.585858c-25.574 5.014-51.149 10.027-76.723 15.041-40.719 7.983-81.438 15.966-122.157 23.948-9.289 1.821-18.577 3.642-27.866 5.463-1.835.36-4.349 2.271-.947 1.604 25.575-5.014 51.149-10.027 76.723-15.041 40.719-7.983 81.438-15.965 122.157-23.948 9.289-1.821 18.578-3.642 27.866-5.463 1.836-.36 4.349-2.271.947-1.604"/><path d="m525.763969 440.586858c-25.574 5.013-51.148 10.027-76.722 15.041-40.719 7.982-81.438 15.965-122.157 23.948-9.289 1.821-18.578 3.642-27.867 5.463-2.037.399-4.174 2.772-.81 2.112 25.575-5.013 51.149-10.027 76.723-15.041 40.719-7.982 81.438-15.965 122.157-23.948 9.289-1.821 18.578-3.642 27.866-5.463 2.037-.399 4.175-2.772.81-2.112"/><path d="m519.369969 411.560858c-25.575 5.013-51.149 10.027-76.723 15.041-40.719 7.982-81.438 15.965-122.157 23.948-9.289 1.821-18.578 3.642-27.866 5.463-2.979.584-2.244 3.144.688 2.57 25.574-5.014 51.148-10.028 76.723-15.041 40.719-7.983 81.438-15.966 122.157-23.948 9.289-1.821 18.577-3.642 27.866-5.463 2.979-.584 2.243-3.145-.688-2.57"/><path d="m531.384969 469.291858c-25.574 5.014-51.148 10.028-76.722 15.041-40.719 7.983-81.438 15.966-122.157 23.948-9.289 1.821-18.578 3.642-27.867 5.463-2.11.414-4.111 2.953-.761 2.296 25.575-5.014 51.149-10.027 76.723-15.041 40.719-7.983 81.438-15.965 122.157-23.948 9.289-1.821 18.578-3.642 27.866-5.463 2.111-.414 4.112-2.952.761-2.296"/></g><path d="m700.836969 765.983858h-508.145c-7.321 0-13.256-5.935-13.256-13.256v-282.7c0-7.321 5.935-13.256 13.256-13.256h508.145c7.321 0 13.256 5.935 13.256 13.256v282.7c0 7.321-5.935 13.256-13.256 13.256" fill="#e5e5e5"/><path d="m688.871 765.55h-496.615c-7.321 0-13.256-5.935-13.256-13.256v-271.038c0-7.321 5.935-13.256 13.256-13.256h496.615c7.321 0 13.256 5.935 13.256 13.256v271.038c0 7.321-5.935 13.256-13.256 13.256" fill="#fff"/><path d="m701.776969 764.615858c-10.901 0-21.801 0-32.702 0-27.689 0-55.378 0-83.068 0-36.959 0-73.919 0-110.879 0-38.712 0-77.423 0-116.135 0-32.946 0-65.892 0-98.837 0-19.661 0-39.323 0-58.984 0-4.568 0-9.811.666-13.773-2.001-7.036-4.737-5.548-14.194-5.548-21.56 0-29.017 0-58.033 0-87.05 0-38.041 0-76.082 0-114.124 0-22.861-.138-45.728 0-68.589.037-6.226 2.704-12.579 9.904-13.151.779-.062 1.588 0 2.369 0h16.964 72.969 106.227 116.446 105.178 70.869c5.171 0 10.349-.077 15.519 0 8.689.128 13.382 6.475 13.382 14.728v69.625 114.236 86.238c0 7.923 1.638 21.065-9.901 21.648-1.78.09-5.107 2.9-1.88 2.737 8.909-.45 16.302-6.097 16.611-15.439.061-1.854 0-3.72 0-5.574 0-10.455 0-20.91 0-31.365 0-36.078 0-72.156 0-108.234 0-35.34 0-70.679 0-106.018 0-9.274 0-18.548 0-27.823 0-2.04.133-4.182-.269-6.191-1.43-7.126-7.958-11.135-14.836-11.306-13.407-.332-26.866 0-40.277 0-29.969 0-59.939 0-89.908 0-38.342 0-76.683 0-115.024 0-39.053 0-78.107 0-117.16 0-31.507 0-63.015 0-94.522 0-16.244 0-32.489 0-48.734 0-9.543 0-18.44 4.911-18.757 15.5-.185 6.199 0 12.433 0 18.634v97.659 113.701 38.587c0 5.469-1.067 12.484.596 17.833 2.76 8.875 11.023 10.036 18.795 10.036h20.855 79.745 111.472 118.472 102.521 62.058 8.362c1.816 0 5.128-2.737 1.88-2.737" fill="#6a79a8"/><g fill="#5d7183" transform="translate(327 525)"><path d="m173.184083 103.029361c5.069328 6.693809 10.138657 13.387618 15.204148 20.081428 3.488281 4.601032 10.664393 2.950661 14.663061.265444 7.279725-4.889559 14.559449-9.779117 21.843011-14.668675 3.476769-2.335139 4.359392-7.166993.920998-9.8714454-3.822143-3.0122141-9.724207-1.3541499-13.308426 1.0502356-7.279724 4.8895588-14.559449 9.7791168-21.839173 14.6686748 4.885128.088482 9.774095.176963 14.659223.265444-5.065491-6.693809-10.134819-13.387618-15.204147-20.0814272-5.230504-6.9053952-22.833085.5078062-16.938695 8.2903212"/><path d="m207.243467 116.167402c12.820494-44.2580044-7.969289-91.4859333-51.331711-109.19449298-38.905281-15.88680168-83.4345934-3.53252661-112.0750634 25.96005198-4.9430253 5.0902063 13.2489911 3.7851233 17.0633845-.1416072 29.7270173-30.61012768 76.1539609-29.53085086 106.4548589-.2066701 23.288077 22.5385149 30.37359 55.5176934 21.489918 86.1814023-1.66808 5.748488 16.726707 3.180422 18.398613-2.598684"/><path d="m22.430511 70.3405584c-9.748553 42.7419436 10.2854521 86.4872746 50.1156927 105.5016346 39.7036863 18.952849 85.9115203 7.315876 115.4064543-24.112024 7.995961-8.519171-9.706368-11.948368-15.562403-5.708921-26.956168 28.725293-70.034648 33.280897-101.7883929 9.218851-26.8411182-20.340675-36.735401-53.998322-29.3837188-86.2297 2.1015763-9.2111619-16.8663006-7.0929022-18.7876323 1.3301594"/><path d="m55.9453882 84.5962461c-5.0826901-6.6829848-10.1653802-13.3659696-15.2480703-20.0489544-3.2858572-4.3247361-10.9579875-2.3467263-14.6016722.0921791-7.2989123 4.8816515-14.6016722 9.7594623-21.90058446 14.6411138-3.25892394 2.1815721-4.66714845 6.4602187-1.14658717 9.0450743 3.72063689 2.726965 9.86526683 1.0254925 13.28579023-1.2636219 7.3027599-4.8816515 14.6016722-9.763303 21.9005845-14.6449546-4.8672241.0307264-9.7382957.0614528-14.6055198.0883383l15.2480703 20.0489544c4.7864243 6.2950644 22.5739159-.7220696 17.0679889-7.958129"/></g></g></svg>